<?xml version="1.0" standalone="no"?>
<!DOCTYPE svg PUBLIC "-//W3C//DTD SVG 20010904//EN"
 "http://www.w3.org/TR/2001/REC-SVG-20010904/DTD/svg10.dtd">
<svg version="1.0" xmlns="http://www.w3.org/2000/svg"
 width="408.000000pt" height="408.000000pt" viewBox="0 0 408.000000 408.000000"
 preserveAspectRatio="xMidYMid meet">
<metadata>
Created by potrace 1.11, written by Peter Selinger 2001-2013
</metadata>
<g transform="translate(0.000000,408.000000) scale(0.100000,-0.100000)"
fill="#000000" stroke="none">
<path d="M1164 3519 c-79 -10 -150 -40 -244 -103 -78 -53 -277 -241 -343 -325
-33 -42 -45 -50 -95 -61 -104 -22 -205 -74 -274 -140 -58 -56 -123 -190 -143
-299 -27 -142 -38 -261 -39 -435 -1 -160 -7 -156 204 -156 l157 0 7 -41 c15
-93 97 -203 183 -245 96 -46 220 -46 312 0 57 30 138 107 147 142 3 13 10 24
14 24 7 0 12 18 26 88 1 8 5 16 8 19 5 6 172 5 1036 -2 267 -2 553 -4 637 -5
l151 0 7 -32 c13 -61 49 -123 99 -171 189 -187 511 -95 576 164 l11 44 141 0
c188 -2 255 8 290 42 67 64 55 177 -47 459 -67 184 -136 280 -256 356 -109 70
-207 97 -384 104 l-130 6 -145 88 c-202 122 -461 270 -548 314 -137 69 -381
137 -582 161 -78 10 -703 13 -776 4z m781 -145 c55 -7 111 -15 125 -18 14 -3
36 -7 50 -10 111 -20 248 -65 335 -108 83 -42 425 -237 454 -260 23 -17 21
-17 -65 -13 -49 2 -165 7 -259 10 -299 9 -467 15 -590 20 -66 3 -202 8 -303
11 -100 3 -190 7 -200 8 -14 3 -16 20 -17 148 -1 120 -4 150 -18 172 -10 14
-23 26 -30 27 -6 0 -20 2 -30 4 -10 2 -30 -7 -45 -20 -26 -23 -26 -23 -27
-171 l0 -149 -120 1 c-167 1 -476 11 -481 16 -7 8 181 187 248 236 91 67 152
94 223 100 33 2 62 6 64 8 11 10 598 0 686 -12z m-930 -479 c116 -4 229 -8
252 -9 23 -1 45 -5 50 -9 4 -5 8 -158 9 -340 1 -224 5 -341 13 -360 6 -16 11
-33 11 -38 0 -5 -60 -9 -142 -9 l-143 1 -22 48 c-30 62 -94 125 -163 159 -48
23 -67 27 -145 27 -77 -1 -98 -5 -145 -28 -67 -32 -123 -85 -161 -152 l-28
-50 -118 0 -118 0 0 90 c-1 166 3 195 34 207 175 68 251 163 257 321 2 43 -1
89 -6 102 -8 21 -6 25 23 34 64 20 101 20 542 6z m820 -30 c88 -3 225 -7 305
-10 326 -11 470 -16 575 -20 61 -2 187 -7 280 -10 346 -11 442 -16 495 -28
l55 -12 6 -76 c8 -91 33 -152 90 -214 51 -55 104 -85 179 -100 l55 -11 27 -80
c15 -43 30 -102 34 -131 l6 -51 -175 -2 -176 -1 -26 55 c-59 125 -200 205
-341 193 -118 -9 -233 -88 -280 -192 l-24 -53 -666 4 c-614 3 -669 5 -702 21
-20 10 -45 31 -56 46 -20 27 -21 42 -21 357 l0 328 100 -3 c55 -2 172 -7 260
-10z m-1510 -119 c-10 -58 -39 -111 -78 -140 -19 -14 -37 -26 -40 -26 -11 0
24 104 51 150 45 79 78 87 67 16z m3412 -83 c37 -41 88 -121 81 -128 -8 -9
-66 34 -92 67 -26 34 -46 98 -31 98 5 0 24 -17 42 -37z m-2925 -442 c99 -37
156 -164 121 -266 -29 -85 -105 -139 -198 -139 -192 0 -282 218 -146 354 62
62 145 81 223 51z m2531 -7 c157 -79 160 -299 5 -380 -48 -25 -121 -28 -170
-6 -88 39 -132 105 -132 199 0 50 5 69 27 101 64 98 176 133 270 86z"/>
<path d="M1612 2760 c-28 -26 -29 -71 -2 -95 20 -18 44 -21 210 -25 121 -3
124 -3 143 29 18 31 13 66 -15 88 -8 7 -75 14 -164 17 -142 6 -151 5 -172 -14z"/>
<path d="M2360 1272 c-8 -3 -17 -9 -20 -13 -3 -4 -5 -161 -5 -349 0 -291 2
-342 15 -350 18 -12 22 -12 39 -1 10 6 14 46 15 167 2 107 7 168 16 186 24 50
115 74 175 46 48 -21 55 -52 55 -226 0 -174 6 -195 50 -172 21 11 22 16 18
188 -3 155 -5 181 -23 210 -42 70 -161 94 -247 48 l-45 -24 0 134 c0 140 -8
169 -43 156z"/>
<path d="M87 1148 c-13 -7 -17 -23 -17 -68 0 -56 -1 -60 -24 -60 -13 0 -29 -7
-37 -16 -17 -21 0 -49 32 -49 l24 0 5 -165 c5 -181 11 -199 67 -225 40 -19 74
-14 84 13 9 23 2 31 -33 37 -47 9 -51 25 -53 177 -1 79 0 148 2 153 2 6 18 10
36 10 17 -1 38 3 45 8 14 11 16 46 2 48 -5 1 -14 3 -20 4 -5 1 -22 3 -38 4
-26 1 -27 3 -27 54 1 28 0 57 -3 64 -5 17 -26 22 -45 11z"/>
<path d="M427 1007 c-65 -40 -97 -100 -102 -191 -8 -171 65 -265 205 -266 105
0 190 42 176 88 -9 28 -16 28 -74 -3 -110 -59 -220 -9 -239 107 l-4 28 160 0
160 0 9 33 c18 66 -15 155 -71 194 -34 24 -51 28 -112 30 -58 1 -78 -2 -108
-20z m162 -50 c31 -16 58 -54 65 -94 l6 -33 -135 0 -135 0 6 28 c11 45 36 81
68 96 38 19 93 20 125 3z"/>
<path d="M866 1017 c-15 -11 -16 -37 -14 -231 3 -194 5 -220 20 -230 35 -21
42 6 44 157 1 193 22 234 123 250 47 8 64 34 36 57 -21 17 -90 3 -124 -26 -35
-29 -41 -30 -36 -4 5 26 -26 44 -49 27z"/>
<path d="M1262 1017 c-38 -12 -94 -71 -86 -91 10 -27 37 -27 64 -1 46 44 136
55 181 22 25 -19 47 -70 39 -92 -6 -17 -17 -19 -102 -21 -147 -2 -208 -44
-208 -142 0 -96 65 -147 179 -140 48 2 75 9 98 26 30 21 31 21 36 2 7 -25 33
-36 52 -20 11 9 14 45 14 178 -1 174 -6 198 -48 245 -40 44 -139 60 -219 34z
m199 -252 c11 -99 -52 -162 -153 -153 -60 6 -91 33 -90 77 1 43 15 64 52 76
40 13 190 13 191 0z"/>
<path d="M1631 1017 c-6 -6 -11 -18 -11 -27 0 -26 150 -424 163 -432 29 -18
42 -2 67 82 12 41 33 113 47 160 l26 85 44 -155 c24 -85 50 -161 57 -168 30
-31 50 3 121 199 39 107 73 203 76 215 8 27 0 41 -25 46 -26 4 -35 -15 -98
-196 l-51 -149 -34 119 c-54 194 -65 222 -81 229 -25 9 -40 -15 -68 -110 -53
-187 -66 -227 -69 -223 -5 5 -79 212 -101 279 -14 48 -42 67 -63 46z"/>
<path d="M2945 1009 c-74 -37 -106 -107 -106 -227 -1 -139 61 -217 181 -231
92 -11 200 32 200 80 0 31 -20 32 -76 4 -100 -51 -201 -18 -228 75 -7 25 -12
48 -9 53 2 4 74 7 158 7 172 0 173 1 170 70 -4 87 -36 142 -99 171 -56 25
-140 25 -191 -2z m159 -51 c33 -14 54 -48 62 -93 l5 -35 -130 0 c-129 0 -131
0 -131 23 0 34 37 87 73 102 39 17 88 19 121 3z"/>
<path d="M3378 1017 c-13 -10 -15 -46 -14 -231 1 -196 3 -220 18 -230 13 -8
21 -7 32 4 12 12 15 47 17 161 1 124 4 152 19 177 24 39 56 60 99 64 44 5 62
31 39 54 -22 22 -89 10 -128 -23 -29 -24 -30 -24 -30 -4 0 27 -32 44 -52 28z"/>
<path d="M3775 1012 c-53 -25 -74 -51 -96 -114 -12 -37 -17 -75 -15 -128 7
-156 83 -228 229 -218 102 7 181 59 145 95 -13 12 -22 10 -69 -12 -30 -14 -72
-25 -95 -25 -70 0 -141 66 -143 133 l-1 27 153 0 c106 0 157 4 165 12 18 18
14 94 -8 146 -29 67 -75 96 -159 100 -49 2 -76 -2 -106 -16z m148 -51 c32 -12
64 -57 70 -99 l5 -32 -134 0 c-85 0 -134 4 -134 10 0 18 29 80 44 95 32 32
101 44 149 26z"/>
</g>
</svg>
